<mxfile host="Electron" agent="Mozilla/5.0 (Windows NT 10.0; Win64; x64) AppleWebKit/537.36 (KHTML, like Gecko) draw.io/26.2.15 Chrome/134.0.6998.205 Electron/35.2.1 Safari/537.36" version="26.2.15">
  <diagram name="Page-1" id="cvrVGNBhK4ivAbXi3VPs">
    <mxGraphModel dx="1678" dy="2089" grid="1" gridSize="10" guides="1" tooltips="1" connect="1" arrows="1" fold="1" page="1" pageScale="1" pageWidth="850" pageHeight="1100" background="none" math="0" shadow="0">
      <root>
        <mxCell id="0" />
        <mxCell id="1" parent="0" />
        <mxCell id="igM3qpSpEWUQtdZvp9MZ-2" value="DB" style="shape=cylinder3;whiteSpace=wrap;html=1;boundedLbl=1;backgroundOutline=1;size=15;labelBackgroundColor=none;" vertex="1" parent="1">
          <mxGeometry x="350" y="460" width="140" height="100" as="geometry" />
        </mxCell>
        <mxCell id="igM3qpSpEWUQtdZvp9MZ-34" style="edgeStyle=orthogonalEdgeStyle;rounded=0;orthogonalLoop=1;jettySize=auto;html=1;entryX=0.25;entryY=1;entryDx=0;entryDy=0;labelBackgroundColor=none;fontColor=default;" edge="1" parent="1" source="igM3qpSpEWUQtdZvp9MZ-3" target="igM3qpSpEWUQtdZvp9MZ-33">
          <mxGeometry relative="1" as="geometry">
            <Array as="points">
              <mxPoint x="130" y="1030" />
              <mxPoint x="390" y="1030" />
            </Array>
          </mxGeometry>
        </mxCell>
        <mxCell id="igM3qpSpEWUQtdZvp9MZ-3" value="QC" style="swimlane;whiteSpace=wrap;html=1;labelBackgroundColor=none;" vertex="1" parent="1">
          <mxGeometry x="30" y="1170" width="200" height="200" as="geometry" />
        </mxCell>
        <mxCell id="igM3qpSpEWUQtdZvp9MZ-36" style="edgeStyle=orthogonalEdgeStyle;rounded=0;orthogonalLoop=1;jettySize=auto;html=1;entryX=0.5;entryY=1;entryDx=0;entryDy=0;labelBackgroundColor=none;fontColor=default;" edge="1" parent="1" source="igM3qpSpEWUQtdZvp9MZ-6" target="igM3qpSpEWUQtdZvp9MZ-33">
          <mxGeometry relative="1" as="geometry" />
        </mxCell>
        <mxCell id="igM3qpSpEWUQtdZvp9MZ-6" value="Sales Support" style="swimlane;whiteSpace=wrap;html=1;startSize=23;labelBackgroundColor=none;" vertex="1" parent="1">
          <mxGeometry x="320" y="1170" width="200" height="200" as="geometry" />
        </mxCell>
        <mxCell id="igM3qpSpEWUQtdZvp9MZ-42" style="edgeStyle=orthogonalEdgeStyle;rounded=0;orthogonalLoop=1;jettySize=auto;html=1;entryX=0.75;entryY=1;entryDx=0;entryDy=0;labelBackgroundColor=none;fontColor=default;" edge="1" parent="1" source="igM3qpSpEWUQtdZvp9MZ-7" target="igM3qpSpEWUQtdZvp9MZ-33">
          <mxGeometry relative="1" as="geometry">
            <Array as="points">
              <mxPoint x="710" y="1030" />
              <mxPoint x="450" y="1030" />
            </Array>
          </mxGeometry>
        </mxCell>
        <mxCell id="igM3qpSpEWUQtdZvp9MZ-7" value="Accounting" style="swimlane;whiteSpace=wrap;html=1;labelBackgroundColor=none;" vertex="1" parent="1">
          <mxGeometry x="610" y="1170" width="200" height="200" as="geometry" />
        </mxCell>
        <mxCell id="igM3qpSpEWUQtdZvp9MZ-30" style="edgeStyle=orthogonalEdgeStyle;rounded=0;orthogonalLoop=1;jettySize=auto;html=1;labelBackgroundColor=none;fontColor=default;" edge="1" parent="1" source="igM3qpSpEWUQtdZvp9MZ-8" target="igM3qpSpEWUQtdZvp9MZ-28">
          <mxGeometry relative="1" as="geometry" />
        </mxCell>
        <mxCell id="igM3qpSpEWUQtdZvp9MZ-8" value="Auth(JWT)" style="rhombus;whiteSpace=wrap;html=1;labelBackgroundColor=none;" vertex="1" parent="1">
          <mxGeometry x="370" y="720" width="100" height="100" as="geometry" />
        </mxCell>
        <mxCell id="igM3qpSpEWUQtdZvp9MZ-17" style="edgeStyle=orthogonalEdgeStyle;rounded=0;orthogonalLoop=1;jettySize=auto;html=1;labelBackgroundColor=none;fontColor=default;" edge="1" parent="1" source="igM3qpSpEWUQtdZvp9MZ-15" target="igM3qpSpEWUQtdZvp9MZ-16">
          <mxGeometry relative="1" as="geometry" />
        </mxCell>
        <mxCell id="igM3qpSpEWUQtdZvp9MZ-15" value="Email" style="rounded=0;whiteSpace=wrap;html=1;labelBackgroundColor=none;" vertex="1" parent="1">
          <mxGeometry x="340" y="-70" width="160" height="90" as="geometry" />
        </mxCell>
        <mxCell id="igM3qpSpEWUQtdZvp9MZ-44" style="edgeStyle=orthogonalEdgeStyle;rounded=0;orthogonalLoop=1;jettySize=auto;html=1;labelBackgroundColor=none;fontColor=default;" edge="1" parent="1" source="igM3qpSpEWUQtdZvp9MZ-16" target="igM3qpSpEWUQtdZvp9MZ-43">
          <mxGeometry relative="1" as="geometry" />
        </mxCell>
        <mxCell id="igM3qpSpEWUQtdZvp9MZ-16" value="API&lt;div&gt;ดึงข้อมูล&lt;/div&gt;" style="rhombus;whiteSpace=wrap;html=1;labelBackgroundColor=none;" vertex="1" parent="1">
          <mxGeometry x="360" y="90" width="120" height="120" as="geometry" />
        </mxCell>
        <mxCell id="igM3qpSpEWUQtdZvp9MZ-29" style="edgeStyle=orthogonalEdgeStyle;rounded=0;orthogonalLoop=1;jettySize=auto;html=1;labelBackgroundColor=none;fontColor=default;" edge="1" parent="1" source="igM3qpSpEWUQtdZvp9MZ-28" target="igM3qpSpEWUQtdZvp9MZ-2">
          <mxGeometry relative="1" as="geometry" />
        </mxCell>
        <mxCell id="igM3qpSpEWUQtdZvp9MZ-39" style="edgeStyle=orthogonalEdgeStyle;rounded=0;orthogonalLoop=1;jettySize=auto;html=1;entryX=1;entryY=0.25;entryDx=0;entryDy=0;labelBackgroundColor=none;fontColor=default;" edge="1" parent="1" source="igM3qpSpEWUQtdZvp9MZ-28" target="igM3qpSpEWUQtdZvp9MZ-33">
          <mxGeometry relative="1" as="geometry">
            <Array as="points">
              <mxPoint x="630" y="640" />
              <mxPoint x="630" y="925" />
            </Array>
          </mxGeometry>
        </mxCell>
        <mxCell id="igM3qpSpEWUQtdZvp9MZ-40" value="ไม่" style="edgeLabel;html=1;align=center;verticalAlign=middle;resizable=0;points=[];labelBackgroundColor=none;" vertex="1" connectable="0" parent="igM3qpSpEWUQtdZvp9MZ-39">
          <mxGeometry x="-0.7474" relative="1" as="geometry">
            <mxPoint as="offset" />
          </mxGeometry>
        </mxCell>
        <mxCell id="igM3qpSpEWUQtdZvp9MZ-28" value="รหัสถูก" style="rounded=0;whiteSpace=wrap;html=1;labelBackgroundColor=none;" vertex="1" parent="1">
          <mxGeometry x="360" y="610" width="120" height="60" as="geometry" />
        </mxCell>
        <mxCell id="igM3qpSpEWUQtdZvp9MZ-37" style="edgeStyle=orthogonalEdgeStyle;rounded=0;orthogonalLoop=1;jettySize=auto;html=1;labelBackgroundColor=none;fontColor=default;" edge="1" parent="1" source="igM3qpSpEWUQtdZvp9MZ-33" target="igM3qpSpEWUQtdZvp9MZ-8">
          <mxGeometry relative="1" as="geometry" />
        </mxCell>
        <mxCell id="igM3qpSpEWUQtdZvp9MZ-33" value="Login" style="rounded=0;whiteSpace=wrap;html=1;labelBackgroundColor=none;" vertex="1" parent="1">
          <mxGeometry x="360" y="910" width="120" height="60" as="geometry" />
        </mxCell>
        <mxCell id="igM3qpSpEWUQtdZvp9MZ-45" style="edgeStyle=orthogonalEdgeStyle;rounded=0;orthogonalLoop=1;jettySize=auto;html=1;labelBackgroundColor=none;fontColor=default;" edge="1" parent="1" source="igM3qpSpEWUQtdZvp9MZ-43" target="igM3qpSpEWUQtdZvp9MZ-2">
          <mxGeometry relative="1" as="geometry" />
        </mxCell>
        <mxCell id="igM3qpSpEWUQtdZvp9MZ-43" value="อีเมลล์กลาง" style="shape=cylinder3;whiteSpace=wrap;html=1;boundedLbl=1;backgroundOutline=1;size=15;labelBackgroundColor=none;" vertex="1" parent="1">
          <mxGeometry x="335" y="280" width="170" height="110" as="geometry" />
        </mxCell>
      </root>
    </mxGraphModel>
  </diagram>
</mxfile>
